<mxfile host="app.diagrams.net" agent="Mozilla/5.0 (Windows NT 10.0; Win64; x64) AppleWebKit/537.36 (KHTML, like Gecko) Chrome/134.0.0.0 Safari/537.36" version="26.2.4">
  <diagram name="Страница — 1" id="cUM3IVPJxzhn28CbABOU">
    <mxGraphModel dx="1428" dy="785" grid="1" gridSize="10" guides="1" tooltips="1" connect="1" arrows="1" fold="1" page="1" pageScale="1" pageWidth="827" pageHeight="1169" math="0" shadow="0">
      <root>
        <mxCell id="0" />
        <mxCell id="1" parent="0" />
        <mxCell id="4kpfNXEU3yKYHW5D_pSW-1" value="" style="ellipse;html=1;shape=startState;fillColor=#000000;strokeColor=#ff0000;" vertex="1" parent="1">
          <mxGeometry x="360" y="100" width="30" height="30" as="geometry" />
        </mxCell>
        <mxCell id="4kpfNXEU3yKYHW5D_pSW-2" value="" style="edgeStyle=orthogonalEdgeStyle;html=1;verticalAlign=bottom;endArrow=open;endSize=8;strokeColor=#ff0000;rounded=0;" edge="1" source="4kpfNXEU3yKYHW5D_pSW-1" parent="1">
          <mxGeometry relative="1" as="geometry">
            <mxPoint x="375" y="190" as="targetPoint" />
          </mxGeometry>
        </mxCell>
        <mxCell id="4kpfNXEU3yKYHW5D_pSW-3" value="Получить список пушнины" style="rounded=1;whiteSpace=wrap;html=1;arcSize=40;fontColor=#000000;fillColor=#ffffc0;strokeColor=#ff0000;" vertex="1" parent="1">
          <mxGeometry x="320" y="190" width="120" height="40" as="geometry" />
        </mxCell>
        <mxCell id="4kpfNXEU3yKYHW5D_pSW-4" value="" style="edgeStyle=orthogonalEdgeStyle;html=1;verticalAlign=bottom;endArrow=open;endSize=8;strokeColor=#ff0000;rounded=0;" edge="1" source="4kpfNXEU3yKYHW5D_pSW-3" parent="1">
          <mxGeometry relative="1" as="geometry">
            <mxPoint x="380" y="290" as="targetPoint" />
          </mxGeometry>
        </mxCell>
        <mxCell id="4kpfNXEU3yKYHW5D_pSW-5" value="Определить стартовую цену" style="rounded=1;whiteSpace=wrap;html=1;arcSize=40;fontColor=#000000;fillColor=#ffffc0;strokeColor=#ff0000;" vertex="1" parent="1">
          <mxGeometry x="320" y="290" width="120" height="40" as="geometry" />
        </mxCell>
        <mxCell id="4kpfNXEU3yKYHW5D_pSW-6" value="" style="edgeStyle=orthogonalEdgeStyle;html=1;verticalAlign=bottom;endArrow=open;endSize=8;strokeColor=#ff0000;rounded=0;" edge="1" source="4kpfNXEU3yKYHW5D_pSW-5" parent="1">
          <mxGeometry relative="1" as="geometry">
            <mxPoint x="380" y="390" as="targetPoint" />
          </mxGeometry>
        </mxCell>
        <mxCell id="4kpfNXEU3yKYHW5D_pSW-7" value="Принимать ставки" style="rounded=1;whiteSpace=wrap;html=1;arcSize=40;fontColor=#000000;fillColor=#ffffc0;strokeColor=#ff0000;" vertex="1" parent="1">
          <mxGeometry x="320" y="390" width="120" height="40" as="geometry" />
        </mxCell>
        <mxCell id="4kpfNXEU3yKYHW5D_pSW-8" value="" style="edgeStyle=orthogonalEdgeStyle;html=1;verticalAlign=bottom;endArrow=open;endSize=8;strokeColor=#ff0000;rounded=0;" edge="1" source="4kpfNXEU3yKYHW5D_pSW-7" parent="1">
          <mxGeometry relative="1" as="geometry">
            <mxPoint x="380" y="490" as="targetPoint" />
          </mxGeometry>
        </mxCell>
        <mxCell id="4kpfNXEU3yKYHW5D_pSW-9" value="Есть новые ставки" style="rhombus;whiteSpace=wrap;html=1;fontColor=#000000;fillColor=#ffffc0;strokeColor=#ff0000;" vertex="1" parent="1">
          <mxGeometry x="320" y="490" width="120" height="60" as="geometry" />
        </mxCell>
        <mxCell id="4kpfNXEU3yKYHW5D_pSW-10" value="no" style="edgeStyle=orthogonalEdgeStyle;html=1;align=left;verticalAlign=bottom;endArrow=open;endSize=8;strokeColor=#ff0000;rounded=0;entryX=0;entryY=0.5;entryDx=0;entryDy=0;" edge="1" source="4kpfNXEU3yKYHW5D_pSW-9" parent="1" target="4kpfNXEU3yKYHW5D_pSW-14">
          <mxGeometry x="-1" relative="1" as="geometry">
            <mxPoint x="520" y="510" as="targetPoint" />
          </mxGeometry>
        </mxCell>
        <mxCell id="4kpfNXEU3yKYHW5D_pSW-11" value="yes" style="edgeStyle=orthogonalEdgeStyle;html=1;align=left;verticalAlign=top;endArrow=open;endSize=8;strokeColor=#ff0000;rounded=0;" edge="1" source="4kpfNXEU3yKYHW5D_pSW-9" parent="1">
          <mxGeometry x="-1" relative="1" as="geometry">
            <mxPoint x="380" y="590" as="targetPoint" />
          </mxGeometry>
        </mxCell>
        <mxCell id="4kpfNXEU3yKYHW5D_pSW-12" value="Обновить цену" style="rounded=1;whiteSpace=wrap;html=1;arcSize=40;fontColor=#000000;fillColor=#ffffc0;strokeColor=#ff0000;" vertex="1" parent="1">
          <mxGeometry x="320" y="590" width="120" height="40" as="geometry" />
        </mxCell>
        <mxCell id="4kpfNXEU3yKYHW5D_pSW-13" value="" style="edgeStyle=orthogonalEdgeStyle;html=1;verticalAlign=bottom;endArrow=open;endSize=8;strokeColor=#ff0000;rounded=0;entryX=0.1;entryY=0.617;entryDx=0;entryDy=0;entryPerimeter=0;" edge="1" source="4kpfNXEU3yKYHW5D_pSW-12" parent="1" target="4kpfNXEU3yKYHW5D_pSW-9">
          <mxGeometry relative="1" as="geometry">
            <mxPoint x="380" y="690" as="targetPoint" />
            <Array as="points">
              <mxPoint x="360" y="570" />
              <mxPoint x="332" y="570" />
            </Array>
          </mxGeometry>
        </mxCell>
        <mxCell id="4kpfNXEU3yKYHW5D_pSW-14" value="Зафиксировать результат" style="rounded=1;whiteSpace=wrap;html=1;arcSize=40;fontColor=#000000;fillColor=#ffffc0;strokeColor=#ff0000;" vertex="1" parent="1">
          <mxGeometry x="550" y="500" width="120" height="40" as="geometry" />
        </mxCell>
        <mxCell id="4kpfNXEU3yKYHW5D_pSW-15" value="" style="edgeStyle=orthogonalEdgeStyle;html=1;verticalAlign=bottom;endArrow=open;endSize=8;strokeColor=#ff0000;rounded=0;entryX=0.5;entryY=0.3;entryDx=0;entryDy=0;entryPerimeter=0;" edge="1" source="4kpfNXEU3yKYHW5D_pSW-14" parent="1" target="4kpfNXEU3yKYHW5D_pSW-16">
          <mxGeometry relative="1" as="geometry">
            <mxPoint x="580" y="590" as="targetPoint" />
          </mxGeometry>
        </mxCell>
        <mxCell id="4kpfNXEU3yKYHW5D_pSW-16" value="" style="ellipse;html=1;shape=endState;fillColor=#000000;strokeColor=#ff0000;" vertex="1" parent="1">
          <mxGeometry x="590" y="630" width="30" height="30" as="geometry" />
        </mxCell>
      </root>
    </mxGraphModel>
  </diagram>
</mxfile>
